<?xml version="1.0" encoding="UTF-8"?>
<svg id="Layer_1" data-name="Layer 1" xmlns="http://www.w3.org/2000/svg" xmlns:xlink="http://www.w3.org/1999/xlink" viewBox="0 0 1264.84 264.45">
  <defs>
    <style>
      .cls-1, .cls-2 {
        font-family: GillSansMT, 'Gill Sans MT';
        font-size: 193.44px;
      }

      .cls-3 {
        fill: #f69220;
      }

      .cls-4 {
        fill: #f05a39;
      }

      .cls-5 {
        fill: #bf2d2b;
      }

      .cls-6 {
        fill: #43af49;
      }

      .cls-2, .cls-7 {
        fill: #1d7dc1;
      }
    </style>
  </defs>
  <g>
    <path class="cls-7" d="m202.22,194.61c-.83,0-1.5-.67-1.5-1.49v-9.08c0-.82.67-1.49,1.5-1.49h.62c.82,0,1.49.67,1.49,1.49v9.08c0,.82-.67,1.49-1.49,1.49h-.62Zm-12.81-37.01c.82,0,1.49-.67,1.49-1.49v-9.08c0-.82-.67-1.49-1.49-1.49h-.62c-.83,0-1.5.67-1.5,1.49v9.08c0,.82.67,1.49,1.5,1.49h.62Zm6.71,37.01c.82,0,1.5-.67,1.5-1.49v-9.08c0-.82-.67-1.49-1.5-1.49h-.62c-.82,0-1.5.67-1.5,1.49v9.08c0,.82.68,1.49,1.5,1.49h.62Zm-6.71,0c.82,0,1.49-.67,1.49-1.49v-9.08c0-.82-.67-1.49-1.49-1.49h-.62c-.83,0-1.5.67-1.5,1.49v9.08c0,.82.67,1.49,1.5,1.49h.62Zm109.08-45.64c-1.14,0-2.26.07-3.37.17-.12-1.15-.23-2.3-.44-3.45-4.1-22.93-25.06-38.57-47.83-36.51-3.82-40.29-37.74-71.82-79.04-71.82-3.02,0-5.99.22-8.93.55,2.72-7.31,7.8-14.16,17.36-18.6-2.84.34-5.6.95-8.26,1.88-16.13,5.68-27.85,21.87-33.02,45.62-2.25,10.35-3.12,21.55-2.66,33.19h79.19c1.3,0,2.37.84,2.79,2h7.59c.16-.25.36-.49.58-.71,1.72-1.72,4.52-1.72,6.24,0,1.73,1.72,1.72,4.52,0,6.25-1.73,1.72-4.52,1.72-6.25,0-.22-.23-.41-.47-.57-.72h-7.39s0,10.54,0,10.54h15.08s3.77,3.79,3.77,3.79c1.41-.3,2.94.1,4.04,1.19,1.72,1.72,1.72,4.52,0,6.25-1.72,1.73-4.52,1.73-6.24,0-1.09-1.1-1.49-2.63-1.19-4.04l-2.36-2.37h-13.08s0,3.93,0,3.93c0,1.64-1.34,2.98-2.98,2.98h-75.46c.57,2.63,1.19,5.27,1.88,7.91h73.59c1.64,0,2.98,1.34,2.98,2.98v.54h11.42s8.45,8.46,8.45,8.46h6.27c.16-.25.35-.49.58-.71,1.72-1.72,4.52-1.72,6.24,0,1.73,1.73,1.73,4.52,0,6.25-1.72,1.72-4.52,1.72-6.25,0-.21-.22-.4-.46-.57-.71h-8.26s-8.45-8.46-8.45-8.46h-9.43s0,13.37,0,13.37h9.74s3.78,3.78,3.78,3.78c1.41-.3,2.94.1,4.03,1.2,1.73,1.73,1.72,4.52,0,6.24-1.73,1.73-4.52,1.73-6.24,0-1.1-1.09-1.49-2.62-1.19-4.04l-2.36-2.36h-7.83c-.21,1.44-1.4,2.56-2.9,2.56h-63.49c.3.68.57,1.39.88,2.06l2.76,5.85h59.85c1.64,0,2.98,1.34,2.98,2.98v4.9h19.21s2.36-2.37,2.36-2.37c-.29-1.41.1-2.94,1.2-4.04,1.71-1.73,4.52-1.73,6.24,0,1.72,1.72,1.72,4.52,0,6.24-1.09,1.1-2.62,1.49-4.04,1.2l-3.77,3.78h-21.21v4.96l8.26,8.27h6.27c.16-.25.35-.49.58-.71,1.72-1.72,4.51-1.72,6.24,0,1.73,1.73,1.73,4.52,0,6.24-1.72,1.73-4.52,1.73-6.24,0-.22-.22-.41-.46-.58-.71h-8.26l-6.26-6.27v1.65c0,1.64-1.34,2.98-2.98,2.98h-41.84c18.4,23.89,41.01,38.75,62.03,38.75,3.95,0,7.79-.59,11.46-1.69-12.67-.14-20.98-4.79-27.05-10.55h90.82c12.92-3.4,30.21-20.71,30.21-42.04s-17.29-38.63-38.63-38.63Zm-95.65-28.39c.82,0,1.49-.67,1.49-1.49v-9.08c0-.82-.67-1.49-1.49-1.49h-.62c-.83,0-1.5.67-1.5,1.49v9.08c0,.82.67,1.49,1.5,1.49h.62Zm-6.72,0c.82,0,1.5-.67,1.5-1.49v-9.08c0-.82-.67-1.49-1.5-1.49h-.62c-.82,0-1.5.67-1.5,1.49v9.08c0,.82.68,1.49,1.5,1.49h.62Zm0,37.01c.82,0,1.5-.67,1.5-1.49v-9.08c0-.82-.67-1.49-1.5-1.49h-.62c-.82,0-1.5.67-1.5,1.49v9.08c0,.82.68,1.49,1.5,1.49h.62Zm6.72,0c.82,0,1.49-.67,1.49-1.49v-9.08c0-.82-.67-1.49-1.49-1.49h-.62c-.83,0-1.5.67-1.5,1.49v9.08c0,.82.67,1.49,1.5,1.49h.62Zm-13.43-37.01c.82,0,1.49-.67,1.49-1.49v-9.08c0-.82-.67-1.49-1.49-1.49h-.62c-.83,0-1.5.67-1.5,1.49v9.08c0,.82.67,1.49,1.5,1.49h.62Z"/>
    <g>
      <path class="cls-6" d="m29.01,127.67h10.06c2.74,0,4.96-2.23,4.96-4.96s-2.22-4.96-4.96-4.96h-10.06c-2.75,0-4.97,2.22-4.97,4.96s2.22,4.96,4.97,4.96Z"/>
      <path class="cls-6" d="m40.25,143.09c0,2.75,2.22,4.97,4.96,4.97h5.03c2.74,0,4.96-2.22,4.96-4.97s-2.22-4.96-4.96-4.96h-5.03c-2.74,0-4.96,2.22-4.96,4.96Z"/>
      <path class="cls-6" d="m11.15,148.06h12.94c2.74,0,4.96-2.22,4.96-4.97s-2.22-4.96-4.96-4.96h-12.94c-2.74,0-4.95,2.22-4.95,4.96s2.22,4.97,4.95,4.97Z"/>
      <path class="cls-3" d="m248.25,249.24c-40.48,14.25-92.01-27.4-115.11-93.02-23.1-65.62-9.01-130.37,31.46-144.61,12.95-4.56,27.04-3.37,40.96,2.47C186.26,1.14,165.96-3.54,147.91,2.82c-23.1,8.13-37.75,32.61-42.27,64.73-2.38,2.99-4.59,6.12-6.52,9.44h-23.02c-2.75,0-4.97,2.22-4.97,4.96s2.23,4.97,4.97,4.97h11.71c3.12,0,5.67,2.35,5.67,5.22s-2.55,5.23-5.67,5.23h-32.83c-2.74,0-4.96,2.23-4.96,4.96s2.22,4.97,4.96,4.97h34.26c3.12,0,5.67,2.35,5.67,5.22s-2.55,5.23-5.67,5.23h-33.49c-2.73,0-4.96,2.22-4.96,4.96s2.22,4.96,4.96,4.96h37.05c2.68,0,4.94,1.74,5.52,4.06.05.41.09.82.14,1.23-.04,2.85-2.56,5.16-5.67,5.16h-24.05c-2.74,0-4.96,2.22-4.96,4.96s2.22,4.97,4.96,4.97h29.17c2.32,0,4.33,1.3,5.2,3.15.12.38.25.76.37,1.14.06.3.11.62.11.93,0,2.88-2.55,5.22-5.68,5.22h-40.21c-2.74,0-4.97,2.23-4.97,4.97s2.23,4.96,4.97,4.96h47.57c3.12,0,5.67,2.36,5.67,5.23s-2.55,5.23-5.67,5.23H33.08c-2.74,0-4.97,2.22-4.97,4.96s2.22,4.96,4.97,4.96h82.16c3.12,0,5.68,2.35,5.68,5.23s-2.56,5.23-5.68,5.23h-40.34c-2.74,0-4.96,2.22-4.96,4.96s2.22,4.96,4.96,4.96h52.89c1.08,0,2.09.31,2.96.8.41.33.84.66,1.26.99.89.92,1.45,2.11,1.45,3.44,0,2.88-2.56,5.23-5.67,5.23h-61.44c-2.74,0-4.95,2.22-4.95,4.96s2.21,4.96,4.95,4.96h91.19c25.46,27.81,55.73,41.12,81.46,32.06,12.44-4.37,22.42-13.51,29.7-26.01-5.79,6.19-12.62,10.86-20.46,13.62Z"/>
      <path class="cls-6" d="m17.62,183.85c0-2.74-2.22-4.96-4.96-4.96h-5.03c-2.74,0-4.96,2.22-4.96,4.96s2.22,4.96,4.96,4.96h5.03c2.74,0,4.96-2.22,4.96-4.96Z"/>
      <path class="cls-6" d="m35.8,168.43c2.74,0,4.96-2.21,4.96-4.96s-2.22-4.97-4.96-4.97H4.96c-2.73,0-4.96,2.23-4.96,4.97s2.23,4.96,4.96,4.96h30.84Z"/>
      <path class="cls-6" d="m50.45,199.27h-30.14c-2.75,0-4.96,2.22-4.96,4.96s2.21,4.96,4.96,4.96h30.14c2.75,0,4.96-2.22,4.96-4.96s-2.21-4.96-4.96-4.96Z"/>
    </g>
    <g>
      <path class="cls-4" d="m202.84,145.53h-.04c.47,2.4.97,4.78,1.52,7.17v-5.67c0-.82-.67-1.49-1.49-1.49Z"/>
      <path class="cls-5" d="m337.12,187.6c0-21.33-17.29-38.63-38.63-38.63-1.14,0-2.26.07-3.37.17-.12-1.15-.23-2.3-.44-3.45-4.1-22.93-25.06-38.57-47.83-36.51-2.43-25.65-17.09-47.7-38.06-60.38-5.35,14.92-8.62,32.58-9.36,51.21h12.05c1.3,0,2.37.84,2.79,2h7.59c.16-.25.36-.49.58-.71,1.72-1.72,4.52-1.72,6.24,0,1.73,1.72,1.72,4.52,0,6.25-1.73,1.72-4.52,1.72-6.25,0-.22-.23-.41-.47-.57-.72h-7.39s0,10.54,0,10.54h15.08s3.77,3.79,3.77,3.79c1.41-.3,2.94.1,4.04,1.19,1.72,1.72,1.72,4.52,0,6.25-1.72,1.73-4.52,1.73-6.24,0-1.09-1.1-1.49-2.63-1.19-4.04l-2.36-2.37h-13.08s0,3.93,0,3.93c0,1.64-1.34,2.98-2.98,2.98h-11.1c.27,2.64.59,5.28.97,7.91h10.12c1.64,0,2.98,1.34,2.98,2.98v.54h11.42s8.45,8.46,8.45,8.46h6.27c.16-.25.35-.49.58-.71,1.72-1.72,4.52-1.72,6.24,0,1.73,1.73,1.73,4.52,0,6.25-1.72,1.72-4.52,1.72-6.25,0-.21-.22-.4-.46-.57-.71h-8.26s-8.45-8.46-8.45-8.46h-9.43s0,13.37,0,13.37h9.74s3.78,3.78,3.78,3.78c1.41-.3,2.94.1,4.03,1.2,1.73,1.73,1.72,4.52,0,6.24-1.73,1.73-4.52,1.73-6.24,0-1.1-1.09-1.49-2.62-1.19-4.04l-2.36-2.36h-7.83c-.21,1.44-1.4,2.56-2.9,2.56h-3.47c.85,2.66,1.77,5.3,2.75,7.91h.73c1.64,0,2.98,1.34,2.98,2.98v4.9h19.21s2.36-2.37,2.36-2.37c-.29-1.41.1-2.94,1.2-4.04,1.71-1.73,4.52-1.73,6.24,0,1.72,1.72,1.72,4.52,0,6.24-1.09,1.1-2.62,1.49-4.04,1.2l-3.77,3.78h-19.5c2.19,4.56,4.6,8.97,7.26,13.23h5.55c.16-.25.35-.49.58-.71,1.72-1.72,4.51-1.72,6.24,0,1.73,1.73,1.73,4.52,0,6.24-1.72,1.73-4.52,1.73-6.24,0-.22-.22-.41-.46-.58-.71h-2.41c6.37,9.28,13.96,17.7,22.86,24.88h57.46c12.92-3.4,30.21-20.71,30.21-42.04Z"/>
      <path class="cls-4" d="m202.21,108.52h.62c.82,0,1.49.67,1.49,1.49v9.07c0,.83-.67,1.5-1.5,1.5h-.62c-.82,0-1.49-.67-1.49-1.49v-9.08c0-.82.67-1.49,1.49-1.49Z"/>
    </g>
  </g>
  <text class="cls-2" transform="translate(351.01 186.55)"><tspan x="0" y="0" xml:space="preserve">Cl  </tspan></text>
  <image width="1500" height="1500" transform="translate(530.71 98.45) scale(.06)" xlink:href="monk.png"/>
  <text class="cls-1" transform="translate(618.3 183.84)"><tspan class="cls-7" x="0" y="0">ud</tspan><tspan class="cls-5" x="195.33" y="0">M</tspan><tspan class="cls-7" x="346.37" y="0">onk</tspan></text>
</svg>
